<svg xmlns="http://www.w3.org/2000/svg" width="512" height="512" viewBox="0 0 512 512" id="ai"><path fill="#3B3323" d="M386 25H134v460h347V120.604z"></path><path fill="#FC9D0E" d="M387 25v95h94z"></path><path d="M398.098 233c.802.534-22.537 26.92-22.537 26.92l30.092 23.678-27.677 20.534L306 235l-30.244 10.45-20.927 66.72L210 407l109.902 78H481V299.721S397.295 232.466 398.098 233z" opacity=".302"></path><g fill="#FC9D0E"><path d="M257.034 358.622l-14.742 48.671h-32.279l54.9-171.75h39.904l55.662 171.75h-33.55l-15.504-48.671h-54.391zm49.054-23.698l-13.471-42.301c-3.305-10.447-6.1-22.169-8.642-32.107h-.509c-2.541 9.938-5.083 21.915-8.133 32.107l-13.217 42.301h43.972zM406.227 248.539c0 9.429-6.862 16.818-17.791 16.818-10.421 0-17.283-7.39-17.283-16.818 0-9.683 7.116-17.073 17.537-17.073 10.674 0 17.283 7.39 17.537 17.073zm-33.295 158.754V283.194h31.516v124.099h-31.516z"></path></g><path fill="#FC9D0E" d="M30 48h326v108H30z"></path><g fill="#3B3323"><path d="M184.194 117.805l-4.503 17.666h-14.822l19.325-68.823h18.762l19.606 68.823h-15.385l-4.878-17.666h-18.105zm16.042-11.64l-3.94-14.602c-1.126-4.084-2.251-9.19-3.189-13.274h-.188c-.938 4.084-1.876 9.292-2.908 13.274l-3.752 14.602h13.977zM239.728 66.647v68.823h-14.353V66.647h14.353z"></path></g></svg>