<?xml version="1.0" encoding="UTF-8"?>
<svg version="1.1" viewBox="0 0 1440 1440" width="1280" height="1280" xmlns="http://www.w3.org/2000/svg">
<path transform="translate(0)" d="m0 0h1440v1440h-1440z" fill="#FCFDFC"/>
<path transform="translate(915,235)" d="m0 0h11l2 5 2 9 1 3 6 1 7 3 6-1 2-4 4-5h5l11 10 6-1 15-4 30-4 11-1h24l33 4 25 5 26 8 27 10 27 13 20 12 12 9 14 11 12 11 14 14 9 11 10 13 12 20 13 24 2 8 5 1 16 1v359l-3 6-8 4h-116l-4-3v-2h-2l-2-7-1-27-1-3-7 4-9 6-21 12-5 2h-3l-1 10-7 6h-2l-1 3-3 1-82 1 3 1 24 1 4 2v3l-12 3-25 9-16 7-21 10-19 10-16 10-12 9-13 11-8 8-9 11-6 7-9 12-10 14-4 5-2 6 13 1 10 4 9 7 6 8 4 10 1 6v8l-2 9-5 10-7 8-8 5-9 3-7 1-46 1-3 2-3 9-10 17-10 15-2 5h12l17-3 25-9 24-11 21-11 16-10 14-10 14-11h2v-2l11-9 9-9h2l2-4h2l2-4 10-10 9-11 10-13 5-8-11 5h-6l1-2 19-7 5-1-1 27h-2l-1-15h-2l-7 11-12 14-7 8-7 7-3 4h-2l-2 4-8 7-9 8-14 11-15 11-19 12-18 10-25 12-24 9-27 8-12 3-5 3-7 3-8 12-8 8-7 8-8 8-6 7-8 7-14 12-16 12-13 9-19 12-14 8-10 4-1 12-1 1-12 2-3 3-4 9-1 7 9 8-1 6-2 4h-2l-1 4h-2l-2 4-7 6h-5l-5-5 2-1 2 1v2l5 1 9-9 6-10-1-5-4-2-4-4 1-7 5-13 4-2h10l1-9-12 4-10 4-15 5-13 1-2 5-7 8-8 4-4 1h-15l-10-5-5-2-10 1h-17l-6-1 2 9 2 3v5l-6 7v6l7 6 12 7 5-4 4-5 4-1 16 7 2 2v6l-2-4-6-4-8-3-5 1-9 7-4 1-16-12-3-4v-6l5-7v-6l-5-10v-2h-19l-27-4-31-7-24-7-28-11-16-8-23-12-18-12-11-8-11-9-10-9-3-2v-2l-4-2-16-17-11-14-9-12-9-13-7-11-12-18v-3h-113l-1-1-12-2-12-6-8-8-6-10-2-6-1-8v-298l82-1h134l-1-2v-7l3-3 8-5 21-16 17-12 17-10 18-8 15-5 26-6 18-3 21-2 35-2 46-2 46-3 14-2h13l8-5 4-1h74v-44l4-3 2-5 7-6 1-2-81-1-19-3-10-5-8-7-6-10-3-9v-14l4-12 6-8 8-7 8-4 10-2h104l10 2 12 6 4 1 2-9 11-28 9-18h-9v-2l-22-1h-13l-34 2-30 5-28 7-26 9-21 9-16 8-18 10-15 10-12 9-14 11-13 12-24 24-9 11-6 7-3 5 11-4 7-1-2 3-16 4-4 2h-4l1-6v-10l1-9h3l-1 12 1 2h2l2-4 9-11 10-11 7-8 8-8 8-7 10-9 13-10 17-12 13-8 17-10 19-9 11-5 25-9 24-7 23-5 28-4 15-1h39l21 1 1-7 9-16 16-24 9-11 4-5-3-1-2-14v-16l13-1-4 2-6 2 3 22 6 2 2-6 6-8 11-9 10-9 13-7 9-6 8-4h2l1-3 12-8 16-7 7-4 11-2 5-2 2-5v-2l-3-1v-2h-5l-7 8-5 2-11-4-6-3-4-13h-24v17l-9 4-7 2 5-5 7-3 1-13 2-4z" fill="#C8EDFE"/>
<path transform="translate(625,603)" d="m0 0h8l4 2-6 8-2 8-1 56-1 1h-42l1 14 42 1v16h-43l1 14h41l1 1v16h-43v14h42l1 1v16h-43l1 14 42 1 1 58 4 10 4 5 8 5 9 2 39 1v-2l4 1 27 1v42h14v-42h17v42h13v-9h1v10l-3 1 1 4h2v2h-2v2l3 1-1 1 2 2-1 2 8 1h5l-2 5 8-1v2l-2 1 3 6-9 8-6 10-2 7v16l4 10 6 9 10 8 8 3 6 1 58 1-3 3-3 9-10 17-10 15-2 5h12l17-3 25-9 24-11 21-11 16-10 14-10 14-11h2v-2l11-9 9-9h2l2-4h2l2-4 10-10 9-11 10-13 5-8-11 5h-6l1-2 19-7 5-1-1 27h-2l-1-15h-2l-7 11-12 14-7 8-7 7-3 4h-2l-2 4-8 7-9 8-14 11-15 11-19 12-18 10-25 12-24 9-27 8-12 3-5 3-7 3-8 12-8 8-7 8-8 8-6 7-8 7-14 12-16 12-13 9-19 12-14 8-10 4-1 12-1 1-12 2-3 3-4 9-1 7 9 8-1 6-2 4h-2l-1 4h-2l-2 4-7 6h-5l-5-5 2-1 2 1v2l5 1 9-9 6-10-1-5-4-2-4-4 1-7 5-13 4-2h10l1-9-12 4-10 4-15 5-13 1-2 5-7 8-8 4-4 1h-15l-10-5-5-2-10 1h-17l-6-1 2 9 2 3v5l-6 7v6l7 6 12 7 5-4 4-5 4-1 16 7 2 2v6l-2-4-6-4-8-3-5 1-9 7-4 1-16-12-3-4v-6l5-7v-6l-5-10v-2h-19l-27-4-31-7-24-7-28-11-16-8-23-12-18-12-11-8-11-9-10-9-3-2v-2l-4-2-16-17-11-14-9-12-9-13-7-11-12-18v-3h-113l-1-1-12-2-12-6-8-8-6-10-2-6-1-8v-298l82-1h134l-1-2v-7l3-3 8-5 21-16 17-12 17-10 18-8 15-5 26-6 18-3 21-2 35-2 46-2 46-3z" fill="#C8EDFE"/>
<path transform="translate(363,690)" d="m0 0h166l10 1v300l-2 10-3 7-6 8-7 7-10 6-5 1-40 1-320-1-12-2-12-6-8-8-6-10-2-6-1-8v-298l238-1z" fill="#8BBEF4"/>
<path transform="translate(724,555)" d="m0 0h14v42h17v-42h14v42h17v-42h14v42h17v-42h14v42h27l5 2v-2h41l10 4 8 7 4 8 1 3v59h42l1 1v13l-1 1h-42v16h43v14l-5 1h-38v16h43v14l-1 1h-42l1 15 42 1v14l-1 1h-42v58l-4 10-6 7-10 5-8 1h-68v42h-14l-1-41-16-1v42h-14v-42h-17v33l-1 9h-13v-42h-17v42h-14v-42h-27l-4-2v2h-39l-9-2-9-6-5-6-3-9v-58h-42l-1-1v-14h43l-1-16-42-1v-14h43l-1-16h-41l-1-1v-14h43v-16h-42l-1-1v-14l42-1 1-56 3-10 9-10 10-4h74z" fill="#0B1E50"/>
<path transform="translate(1200,420)" d="m0 0h119l16 1v359l-3 6-8 4h-116l-4-3v-2h-2l-2-7z" fill="#024F91"/>
<path transform="translate(1018,420)" d="m0 0h133l1 3v183l-1 177-6 5-4 2-54 1h-35l-28-1-5-4-2-3v-362z" fill="#024F91"/>
<path transform="translate(724,555)" d="m0 0h14v42h17v-42h14v42h17v-42h14v42h17v-42h14v42h27l5 2v-2h41l10 4 8 7 4 8 1 3v59h42l1 1v13l-1 1h-42v16h43v14l-5 1h-38v16h43v14l-1 1h-42l1 15 42 1v14l-1 1h-42v58l-4 10-6 7-10 5-8 1h-68v42h-14l-1-41-16-1v42h-14v-42h-17v33l-1 9h-13v-42h-17v42h-14v-42h-27l-4-2v2h-39l-9-2-9-6-5-6-3-9v-58h-42l-1-1v-14h43l-1-16-42-1v-14h43l-1-16h-41l-1-1v-14h43v-16h-42l-1-1v-14l42-1 1-56 3-10 9-10 10-4h74zm-62 62-6 3v2h-2l-4 7-1 15v177l1 15 4 6 7 4 4 1h225l7-2 7-8 1-6v-206l-3-5-5-3z" fill="#0C2255"/>
<path transform="translate(1173,893)" d="m0 0 5 1 2 1v2l11 2 14 5 11 6 12 11 8 10 8 14 5 14 2 6 20 3 13 4 9 7 7 8 5 10 7 26 1 4 5 2 2 5v7l-1 1-35 1h-233l-18-1-2-1v-8l2-5 2-2 6-2 3-25 5-12 6-10 11-11 11-6 13-6 8-15 10-14 12-12 13-8 12-5 18-4h10z" fill="#C8EDFE"/>
<path transform="translate(254,434)" d="m0 0h63l5 5 5 6 2 1 73 2 7 2 4 7v95l-2 5-3 3-13 2-69 1h-2v7l-2 1-2-1-1-7-63-1-16-1-7-3-2-2-1-20v-45l1-44 2-7 5-4z" fill="#C9EEFE"/>
<path transform="translate(314,893)" d="m0 0h193v105l-35 1h-145l-14-1-1-1v-103z" fill="#0B2154"/>
<path transform="translate(1200,420)" d="m0 0h119v1h-108l1 2 1 173 1 108 1 3h97l9-2 1-283 10 2 3 1v355l-3 6-8 4h-116l-4-3v-2h-2l-2-7z" fill="#0284CE"/>
<path transform="translate(1018,420)" d="m0 0h133l1 3v183l-1 177-6 5-4 2-54 1h-35l-28-1-5-4-2-3v-362zm9 1 1 7 1 271 1 7 9 2h92l7-2 1-3v-243l1-39z" fill="#0285CF"/>
<path transform="translate(343,691)" d="m0 0h151l44 1v38l-45 1-388-1v-38z" fill="#0B1F52"/>
<path transform="translate(140,893)" d="m0 0h147l3 1v104l-28 1-123-1v-104z" fill="#0285CF"/>
<path transform="translate(915,235)" d="m0 0h11l2 5 2 9 1 3 6 1 7 3 6-1 2-4 4-5h5l12 11 6 6-1 7-6 7 7 15v2h15l3 2 1 5 1 19-2 4-13 2-6 16v3l3 2v2l4 2 2 5-5 9-3 1-2 4-5 6-6 1-8-6-6 1-9 4h-2l-1 18-1 1h-29l-1-1-1-12 1-2-8-1-9-3-5 1-7 8-6-2-8-6-9-9-1-6 7-7-1-5-8-14-4 1-6 4 1-5 5-2 2-6 6-8 11-9 10-9 13-7 9-6 8-4h2l1-3 12-8 16-7 7-4 11-2 5-2 2-5v-2l-3-1v-2h-5l-7 8-5 2-11-4-6-3-4-13h-24v17l-9 4-7 2 5-5 7-3 1-13 2-4z" fill="#C9EEFE"/>
<path transform="translate(815,932)" d="m0 0h97l10 2 10 5 6 5 6 8 4 10 1 6v8l-2 9-5 10-7 8-8 5-9 3-7 1h-104l-9-2-8-4-10-9-6-11-2-6v-16l4-11 7-9 7-6 11-5z" fill="#025294"/>
<path transform="translate(647,455)" d="m0 0h104l10 2 12 6 7 7 7 14 1 4v13l-3 10-5 8-4 5-10 7-9 3-8 1h-44l-63-1-11-4-9-7-6-8-4-9-1-4v-14l4-12 6-8 8-7 8-4z" fill="#203A75"/>
<path transform="translate(610,1109)" d="m0 0h9l1 1 1 7v8l10 2 6 3 4-1 6-8 7 1 14 12 3 5-1 5-5 7 1 6 6 10 2 1h13l3 7 1 8v14l-1 1-12 2-3 3-4 9-1 7 9 8-1 6-2 4h-2l-1 4h-2l-2 4-7 6h-5l-5-5 2-1 2 1v2l5 1 9-9 6-10-1-5-4-2-4-4 1-7 5-13 4-2h10l1-9-12 4-10 4-15 5-13 1-2 5-7 8-8 4-4 1h-15l-10-5-5-2-10 1h-17l-6-1 2 9 2 3v5l-6 7v6l7 6 12 7 5-4 4-5 4-1 16 7 2 2v6l-2-4-6-4-8-3-5 1-9 7-4 1-16-12-3-4v-6l5-7v-6l-5-10v-2l-16-1-2-2-2-25 2-3 13-2 3-7 2-7-1-6-8-7 1-5 11-13 7-7 5 2 7 6 5-1 12-6 1-16 6-2z" fill="#C9EEFF"/>
<path transform="translate(338,759)" d="m0 0h30l53 1v22l-4 8-4 6h-2v2h-2v2l-11 7-14 5-27 6-21 5-16 7-7 6h-2l-6 12-2 11v8h-67l-3-5-2-9 1-11 4-11 6-9 6-7 12-8 32-13 14-7 14-10 7-6 7-8 3-1z" fill="#FAFCFC"/>
<path transform="translate(430,759)" d="m0 0h76l1 1v25l-4 3-5 1-31 1-16 2-9 3-8 6-7 9-5 10-1 4v13l4 6 6 4 6 2 23 3 10 4 3 4v7h-162l-3-10 1-7 5-8 5-5 8-6 13-5 45-10 16-6 11-7 8-9 4-7 4-10 1-17z" fill="#F8FBFC"/>
<path transform="translate(138,759)" d="m0 0h123v5l-12 16-14 14-10 8-10 7-22 12-25 9-23 6h-8l-1-1v-74z" fill="#F9FCFC"/>
<path transform="translate(272,759)" d="m0 0h54v6l-11 11-5 2v2l-14 8-30 12-16 8-10 8-7 10-5 11-2 13 2 17-69 1h-21l-2-3v-22l1-1 9-1 2-2 24-6 22-8 21-11 16-11 15-13 10-11 11-15 1-2h2v-2z" fill="#F6FBFC"/>
<path transform="translate(684,1188)" d="m0 0h4v7l-1 2-13 2-5 14-1 6 7 6 2 5-6 10-10 10-5-2v-2l-10-1-13 7-1 12-5 5-6 1h-15l-5-2v-13l-10-5-9-3-5 5-6 5-12-7-8-7v-6l6-7v-5l-3-5v-7h23l11-1 14 7h15l10-4 6-5 5-8 5-1 12-2 20-7z" fill="#FAFDFD"/>
<path transform="translate(774,690)" d="m0 0h47l11 3 9 6 5 6 3 7 1 11-2 10-6 9-8 6-9 3-7 1h-20v21l-1 1h-22l-1-1z" fill="#F8FCFC"/>
<path transform="translate(385,907)" d="m0 0 3 1 12 20 17 26 1 2 4-1 8-11 10-13 3-4 4 2 15 26 11 17v4l-29 1h-74l-25-1 2-5 9-15 14-24 9-15z" fill="#FACF5E"/>
<path transform="translate(503,792)" d="m0 0h4v75h-26l-6-12-5-4-7-3-13-2-16-2-6-4-3-6 1-10 8-16 7-7 7-4 8-2 41-1z" fill="#F8FCFC"/>
<path transform="translate(708,690)" d="m0 0h23l7 15 19 43 10 23v3h-24l-3-5-4-10-36-1-1 6-3 9-2 1h-23l1-6 9-20 13-30 12-27z" fill="#F8FBFC"/>
<path transform="translate(903,238)" d="m0 0h21l3 9 1 5 9 3 10 3 8-7 2-3 5 1 4 5-2 5-9 4-10 2-26 13-7 5-3 3-11 6-6 4-14 8-10 9-11 9-6 10-1 2-6-1-1-1-2-16v-6l6-3h4v-2l3-3 3-10v-8l-4-2-4-5 1-5 7-9 10-10 4 1 5 4 5 3 8-1 8-4h3l-1-4v-11l1-2z" fill="#FBFDFD"/>
<path transform="translate(788,483)" d="m0 0h3l2 6v8l-1 4 2-1 2-3v4h2v7l-5 15-6 9v7l-5 5 6 3 11 1 5 2 1 3-4 4v-2h-15v42h-17v-42h-14v42h-17v-42h-14v-2l4-3 2-5 7-6 1-2-81-1-7-1v-1h99l12-2 10-5 5-4 6-8 4-9 1-5z" fill="#C8EFFE"/>
<path transform="translate(666,613)" d="m0 0h109l114 1 11 1 5 4 3 6v208l-2 7h-2l-1 4-8 5-13 1h-219l-8-3-5-6-3-5-1-4v-200l3-7 4-6 8-5zm-4 4-6 3v2h-2l-4 7-1 15v177l1 15 4 6 7 4 4 1h225l7-2 7-8 1-6v-206l-3-5-5-3z" fill="#0386D0"/>
<path transform="translate(744,400)" d="m0 0h39l26 3 27 5 31 8 20 7 25 11 20 10 11 7 5 2-3-7-3-8h3l11 23-1 2h-26l-1-3h21l-36-20-25-11-27-9-28-7-24-4-23-2-18-1h-13l-34 2-30 5-28 7-26 9-21 9-16 8-18 10-15 10-12 9-14 11-13 12-24 24-9 11-6 7-3 5 11-4 7-1-2 3-16 4-4 2h-4l1-6v-10l1-9h3l-1 12 1 2h2l2-4 9-11 10-11 7-8 8-8 8-7 10-9 13-10 17-12 13-8 17-10 19-9 11-5 25-9 24-7 23-5 28-4z" fill="#0285CF"/>
<path transform="translate(769,867)" d="m0 0h17v42h14v-42h16l1 1v42h14l-8 4-1 2 2 1-1 1 3 2-3 3h-2v4l2 1 11 1v2h10v1l-29 1-14 1-9 4-4-1v-3l-2-1 3-1-5-1-4 1 3-6-10 1-4-2v-3l-2-5h2v-2h-2l-1-4 2-1v-36z" fill="#C9F0FE"/>
<path transform="translate(1049,921)" d="m0 0h3l-1 27h-2l-1-15h-2l-7 11-12 14-7 8-7 7-3 4h-2l-2 4-8 7-9 8-14 11-15 11-19 12-18 10-25 12-24 9-27 8-27 6-33 4h-50l-33-4-31-7-20-6-22-8-19-8-7-4-2 1 7 11v2l-4-1-6-10-4-8v-3l20-3h6l-1 3-13 1v3l20 9 24 9 27 8 25 5 31 4 16 1h27l33-3 26-5 29-8 25-9 24-11 21-11 16-10 14-10 14-11h2v-2l11-9 9-9h2l2-4h2l2-4 10-10 9-11 10-13 5-8-11 5h-6l1-2 19-7z" fill="#0282CC"/>
<path transform="translate(725,865)" d="m0 0h107l67 1v1h-68v42h-14l-1-41-16-1v42h-14v-42h-17v33l-1 9h-13v-42h-17v42h-14v-42h-27v-1z" fill="#0386D0"/>
<path transform="translate(914,287)" d="m0 0h9l8 3 7 4v2h2l5 10 1 4v13l-5 10-9 8-6 3-10 1-11-4-9-6-5-8-1-3v-14l3-8 7-8z" fill="#C9EEFF"/>
<path transform="translate(602,1162)" d="m0 0h15l9 4 6 5 6 12v14l-5 10-2 3h-2v2l-9 5-4 1h-12l-8-3-8-6-6-12v-15l4-8 5-6 8-5z" fill="#C9EEFF"/>
<path transform="translate(861,690)" d="m0 0h24v83l-1 1h-22l-1-1z" fill="#F8FCFD"/>
<path transform="translate(1231,623)" d="m0 0h73l-1 21-21 1h-50l-1-10z" fill="#0386D0"/>
<path transform="translate(160,938)" d="m0 0h107l3 2v10l-3 2-7 1-99-1-2-2v-11z" fill="#E9F4FC"/>
<path transform="translate(162,914)" d="m0 0h106l3 5v5l-4 4h-107l-1-2v-10z" fill="#ECF6FC"/>
<path transform="translate(1047,623)" d="m0 0h73v21h-72z" fill="#0386D0"/>
<path transform="translate(1153,433)" d="m0 0h1l2 18v39l-1 10 1 8v15l-1 3v11l1 2 1 34v28l-2 16 2 13-1 49-1 5 1 11v15l-1 11-1 2 1 12v32l4 4-6 1-1 10h-1v-277z" fill="#C3EBFD"/>
<path transform="translate(721,613)" d="m0 0h54l114 1 11 1 5 4 3 6v208l-2 7h-2l-1 4-8 5-13 1h-25l-19-1v-1l50-1 9-3 6-7 1-6v-206l-2-4-5-3-13-1-204-1-1-2z" fill="#64ADE9"/>
<path transform="translate(723,555)" d="m0 0h1v42h-63v-2l6-3 11-6 16-9 20-14 7-4z" fill="#C7EEFD"/>
<path transform="translate(610,1109)" d="m0 0h9l1 1 1 7v8l10 2 6 3 4-1 6-8 7 1 14 12 3 5-1 5-5 7 1 6 6 10 2 1h13l3 7 1 8v14l-1 1-12 2-3 3-4 9-1 7 9 8-1 6-2 4h-2l-1 4h-2l-2 4-7 6h-5l-5-5 2-1 2 1v2l5 1 9-9 6-10-1-5-4-2-4-4 1-7 5-13 4-2 12-1-3-24-13-1-5-5-5-8-1-8h2l1-4 3-5-3-5-5-5-8-7h-5l-2 4-4 5-7-1-15-6-1-2v-12l-24 1-2 1v15l-16 8-6 1-8-7-4 1-10 10-5 7 2 4 9 6-3 12-3 10-2 1-14 1 3 25 16 1 4 11 3 5v5l-6 7v6l7 6 12 7 5-4 4-5 4-1 16 7 2 2v6l-2-4-6-4-8-3-5 1-9 7-4 1-16-12-3-4v-6l5-7v-6l-5-10v-2l-16-1-2-2-2-25 2-3 13-2 3-7 2-7-1-6-8-7 1-5 11-13 7-7 5 2 7 6 5-1 12-6 1-16 6-2z" fill="#89BDF4"/>
<path transform="translate(1014,593)" d="m0 0h1l1 78 1 111 5 6 2 1 28 1h35l56-1-1 2-3 1-82 1 3 1 24 1 3 2h-53l-16-2-4-2-1-3 1-25h-2l-1-6 1-2h2l-3-15v-19l1-16v-4l-1-11v-37l2-5v-13l-2-3v-23l1-4 1-12z" fill="#C7EEFE"/>
<path transform="translate(616,1031)" d="m0 0h6l-1 3-13 1v3l20 9 24 9 27 8 25 5 31 4 16 1h27l33-3 5-1h7v1l-6 2-12 1-4 1 4 2-18 2h-50l-33-4-31-7-20-6-22-8-19-8-7-4-2 1 7 11v2l-4-1-6-10-4-8v-3z" fill="#0284CE"/>
<path transform="translate(915,235)" d="m0 0h11l2 5 2 9 1 3 6 1 7 3 6-1 2-4 4-5h5l12 11 6 6-1 7-6 7 7 15v2h15l3 2 1 5 1 19-2 4-13 2-6 16v3l3 2v2l4 2 2 5-5 9-3 1-2 4-5 6-6 1-8-6-6 1-9 4h-2l-1 18-1 1h-29l-1-1-1-12 1-2-8-1-9-3-5 1-7 8-6-2-8-6-9-9-1-6 7-7-1-5-8-14-4 1-6 4 1-5 8-4 3 1 11 19-1 4-4 4h-2l-1 5 6 8 11 8 5-1 5-6 7-1 11 4 6 1 1 2v13h27v-17l12-6 5-3 6 2 8 6 3-1 1-3h2l2-5 6-8 1-4-5-5-4-3 2-11 4-10 3-2 13-1-1-4-1-21-17-1-8-16-1-4 7-8-1-5-10-9v-2l-3-1v-2h-5l-7 8-5 2-11-4-6-3-4-13h-24v17l-9 4-7 2 5-5 7-3 1-13 2-4z" fill="#89BDF4"/>
<path transform="translate(1189,448)" d="m0 0h1v39h1v12l1 2v51l-1 2v18l-2 3v13h1v5l-1 4h1v10h-1l-1 13h-1l-3-31v-12l-1-10-1-12-3-12v-11l3-5v-20l2-10v-17l2-10z" fill="#CEF4FF"/>
<path transform="translate(160,962)" d="m0 0h67l4 2v10l-2 2h-69l-1-1v-12z" fill="#ECF6FC"/>
<path transform="translate(503,787)" d="m0 0 4 1-1 4-9 3-41 1-10 3-8 6-6 8-5 11-1 10 3 6 5 3 16 2 16 3 8 5 4 5 2 4v5l-5-1-5-9-10-4-23-3-10-4-6-7-1-2v-13l4-10 6-10 7-7 10-5 8-2 12-1 31-1z" fill="#0281CA"/>
<path transform="translate(423,760)" d="m0 0h5v18l-3 9-4 7-9 10-11 7-19 7-38 8-12 4-8 4-7 5-6 9-2 5v9l1 5h-6l-2-11 4-13 5-7 11-8 14-6 26-6 25-6 13-5 7-5h2v-2h2v-2h2l2-5 4-6 3-13v-11z" fill="#0284CE"/>
<path transform="translate(738,867)" d="m0 0h17v43l10 1-1 2-6 2 3 4h-7l-2 1 1 2h-13l2-1v-2h-3v-2h-2v-4l-2-3h3z" fill="#C9F0FE"/>
<path transform="translate(336,501)" d="m0 0 37 1 1 1v7l-1 1h-101l-2-1v-8z" fill="#8CBEF5"/>
<path transform="translate(666,613)" d="m0 0h48v1l-34 1 204 1v1l-222 1-6 2v2h-2l-2 5-2 10v120l-1 21-2-1-1-19v-126l3-7 4-6 8-5z" fill="#2694D9"/>
<path transform="translate(270,522)" d="m0 0h79l24 1 1 1v6l-1 1h-100l-3-1z" fill="#8CBEF5"/>
<path transform="translate(330,760)" d="m0 0h6l-2 4-4 5h-2l-2 4-14 11-14 8-9 4-24 10-10 5-10 8-7 10-4 9-2 11 1 9 2 9h-5l-4-9-1-11 3-13 7-13 8-9 14-9 24-10 21-9 6-4h2v-2l8-6z" fill="#0283CD"/>
<path transform="translate(323,482)" d="m0 0h50l1 1v7l-1 1h-66l-37-1v-7z" fill="#8CBEF5"/>
<path transform="translate(1199,422)" d="m0 0h1v211l-2-1v-11l-1-15-2-9 1-14 1-4-1-1-1-9 1-7v-11l-1-12 1-6-1-14v-84z" fill="#CEF4FF"/>
<path transform="translate(1114,983)" d="m0 0 102 1 1 1v6l-3 1h-100l-1-1v-7z" fill="#8CBEF5"/>
<path transform="translate(702,867)" d="m0 0h21v43h9l2 2-4 5-6-1-8-6-2-4v-3l2-1-1-6-2 1-1 12h-1l-1-11-2-5h-6v-2l-3-1-1-5 1-5-3 1 1-6 7-2 3-3-2 1v-3z" fill="#CDF3FF"/>
<path transform="translate(266,759)" d="m0 0h3l-1 5-9 12-11 13-13 12-14 10-17 10-15 7-24 8-23 5h-5v-4l12-3 25-7 21-8 22-12 13-10 13-12 7-7 13-18z" fill="#0284CE"/>
<path transform="translate(273,490)" d="m0 0h34l40 1 12 1 4 4 1-2 3 1-1 3-5 2h-76l-14-2-2 3-3-1 2-6 7-1 2-1z" fill="#CEF4FF"/>
<path transform="translate(1114 1e3)" d="m0 0 98 1 6 2-1 5-4 1h-97l-3-1v-7z" fill="#8CBEF5"/>
<path transform="translate(586,755)" d="m0 0h42v16h-44l-1 5-3-1v-6l3-4v-9l3 1z" fill="#C8EFFE"/>
<path transform="translate(623,723)" d="m0 0 5 1-1 15h-33l-10-4v20l-3-3h-4l-1-6 7-17 5-5z" fill="#CDF3FE"/>
<path transform="translate(1113,964)" d="m0 0h103l1 1v6h-103l-1-1z" fill="#8CBEF5"/>
<path transform="translate(625,786)" d="m0 0h3l1 58 4 10-1 3-5-3-1-5-1 3v3l-3 1-4-15-1-6v-20l1-11h1l1-6-5-1-3-2 1-3-2-2 3-1v-2h9z" fill="#C8EFFE"/>
<path transform="translate(861,957)" d="m0 0 6 1 8 13 3-1 8-13h6l1 3v26l-1 1-7-1v-7l1-5-4 4-3 6h-5l-3-5-3-4v10l-3 2h-5l-1-1v-27z" fill="#EBF5FC"/>
<path transform="translate(827,408)" d="m0 0h9l31 8 20 7 25 11 20 10 11 7 5 2-3-7-3-8h3l11 23-1 2h-26l-1-3h21l-36-20-25-11-27-9-28-7-2-2 1-1-5-1z" fill="#0263A8"/>
<path transform="translate(624,625)" d="m0 0h3v53h-26l-6-1-1-3 4-3 12-2 2-3h2l1-6 2-1 1-16 2-5 2-4z" fill="#CBF2FE"/>
<path transform="translate(548,473)" d="m0 0m3 0 3 1-3 2-1 3-10 8-12 11-24 24-9 11-6 7-3 5 11-4 7-1-2 3-16 4-4 2h-4l1-6v-10l1-9h3l-1 12 1 2h2l2-4 9-11 10-11 7-8 8-8 8-7 10-9 9-6z" fill="#0283CD"/>
<path transform="translate(798,709)" d="m0 0h19l5 3 3 4v10l-4 5-6 2h-17z" fill="#0B1F51"/>
<path transform="translate(816,867)" d="m0 0h15v42h-14z" fill="#0386D0"/>
<path transform="translate(786,867)" d="m0 0h14v42h-14z" fill="#0386D0"/>
<path transform="translate(817,555)" d="m0 0h14v42h-14z" fill="#0285CF"/>
<path transform="translate(786,555)" d="m0 0h14v42h-14z" fill="#0285CF"/>
<path transform="translate(755,555)" d="m0 0h14v42h-14z" fill="#0386D0"/>
<path transform="translate(724,555)" d="m0 0h14v42h-14z" fill="#0386D0"/>
<path transform="translate(801,957)" d="m0 0h6l1 1v9l11 1v-10l1-1h7l1 1v27l-4 2-5-1-1-10h-8l-1 1v7l-2 3-7-1v-28z" fill="#ECF6FC"/>
<path transform="translate(1104,727)" d="m0 0h9v2h2v36l-1 7-1 1h-9l-2-3v-37z" fill="#0B2B61"/>
<path transform="translate(755,867)" d="m0 0h14v33l-1 9h-13z" fill="#0386D0"/>
<path transform="translate(1128,728)" d="m0 0h11v44l-1 1h-10l-1-1v-43z" fill="#0B1E50"/>
<path transform="translate(1029,728)" d="m0 0h11l1 7v13l-1 25h-11l-1-14v-28z" fill="#0B1E50"/>
<path transform="translate(1079,728)" d="m0 0h11v43l-1 2h-10l-1-3v-39z" fill="#0A285D"/>
<path transform="translate(1054,728)" d="m0 0h11v44l-1 1h-10l-1-3v-38z" fill="#0B285E"/>
<path transform="translate(616,1031)" d="m0 0h6l-1 3-13 1v3l20 9 24 9 27 8 4 1v2l3 1-2 1h-7l-22-6-24-9-19-8-7-4-2 1 7 11v2l-4-1-6-10-4-8v-3z" fill="#0282CB"/>
<path transform="translate(1312,727)" d="m0 0h9l1 2v43l-1 1h-10l-1-3v-25l1-17z" fill="#0B2559"/>
<path transform="translate(936,663)" d="m0 0 2 3 3 3 10 1 2 1 7-1 8 2 2 2v4h2v2h2v2l4 3 2-1v6l-5 11-3 5-1 2h-11l1-2-5-2 1-5 2-2 1 1 2-2 2 6 2-2 4 3-1-9-3-1 3-1v-13l-21-1-8-1-3-5-4-2-1-4z" fill="#CDF3FE"/>
<path transform="translate(721,613)" d="m0 0h54l114 1 11 1 2 2-5 1-13-1-204-1-1-2z" fill="#7DB7F0"/>
<path transform="translate(811,560)" d="m0 0h4l1 6v30l-1 1h-14v-29l5-2 3-5z" fill="#CDF3FF"/>
<path transform="translate(598,693)" d="m0 0h29v15h-39l-2-3h-4v-2h2l1-4 4-4 5 2 7 3 7 2v-4l4-2 1-2h-15z" fill="#CDF3FE"/>
<path transform="translate(1049,921)" d="m0 0h3l-1 27h-2l-1-15h-2l-7 11-12 14-7 8-7 7-3 4h-2l-2 4-7 6h-4v-2h2l2-4h2l2-4h2l2-4 3-5 10-10 9-11 10-13 5-8-11 5h-6l1-2 19-7z" fill="#0261A6"/>
<path transform="translate(871,585)" d="m0 0 4 3-1 4 10-1h26l1 6-1 1-47-1v2l-22-3v-4l13-4 3 2v-3l8-1v2h2l2 2h3z" fill="#CAF1FE"/>
<path transform="translate(1213,728)" d="m0 0h9l1 1v44h-10l-1-10v-32z" fill="#0B2458"/>
<path transform="translate(706,467)" d="m0 0h5l2 4-5 13-8 24-5 13-2 2h-5l-2-3 14-41 4-10z" fill="#ECF7FC"/>
<path transform="translate(928,725)" d="m0 0h17v2l6 2-2-3 1-1 10 1 1 5h3l1 3 2-1-1 5h3l1-3 2 3-1 1-43 1z" fill="#CDF3FF"/>
<path transform="translate(911,284)" d="m0 0 13 1 12 5 6 5 5 8 2 8v9l-3 9-7 9-10 7-7 2-10-1-14-7-7-7-3-7v-19l4-9 9-8zm3 3-14 7-8 9-2 7v14l5 10 8 6 10 4 9 1 8-3 10-8 5-8 1-3v-13l-3-9-3-5h-2v-2l-11-6-4-1z" fill="#8CBEF5"/>
<path transform="translate(606,1159)" d="m0 0h8l11 4 8 6 6 9 2 7v12l-5 10-7 8-8 4-4 1h-15l-10-5-7-7-5-10-1-4v-11l6-12 8-7 8-4zm-4 3-8 4-5 4-6 9-1 3v15l6 12 10 7 6 2h12l10-4 3-2v-2h2l6-10 1-3v-14l-6-12-9-7-6-2z" fill="#8BBDF4"/>
<path transform="translate(1262,728)" d="m0 0h9l1 1v43h-10z" fill="#0B1E50"/>
<path transform="translate(1239,728)" d="m0 0h9v44h-10v-43z" fill="#0A2053"/>
<path transform="translate(1289,728)" d="m0 0h7l1 1v43h-10v-41z" fill="#0B1E50"/>
<path transform="translate(481,1068)" d="m0 0h8l5 4 2 4v7l-5 6-4 2-7-1-5-5-2-4 1-7 5-5z" fill="#0284CE"/>
<path transform="translate(647,1121)" d="m0 0 7 1 14 12 3 5-1 5-5 7 1 6 6 10 2 1h13l3 7 1 8v14l-1 1-12 2-3 3-4 9-1 7 9 8-1 6-2 4h-2l-1 4h-2l-2 4-7 6h-5l-5-5 2-1 2 1v2l5 1 9-9 6-10-1-5-4-2-4-4 1-7 5-13 4-2 12-1-3-24-13-1-5-5-5-8-1-8h2l1-4 3-5-3-5-5-5-8-7-5-2z" fill="#8CBEF5"/>
<path transform="translate(414,1068)" d="m0 0h6l6 4 2 4v7l-4 5-5 3-7-1-5-4-2-5 1-7 5-5z" fill="#0285CF"/>
<path transform="translate(549,1068)" d="m0 0h8l5 4 2 3v7l-4 6-5 3-7-1-5-5-2-4 1-6 5-6z" fill="#0281CA"/>
<path transform="translate(679,483)" d="m0 0h6v5l-5 3-10 4-1 3 12 3 4 4-1 5-7-1-17-7-4-3v-6l6-4z" fill="#E9F5FC"/>
<path transform="translate(352,818)" d="m0 0 4 1-1 2-3 2-4 2-16 5-8 4-7 5-6 9-2 5v9l1 5h-6l-2-11 4-13 5-7 11-8 14-6z" fill="#0283CC"/>
<path transform="translate(714,482)" d="m0 0 9 2 17 7 3 3-1 5-6 4-19 7-3-1 1-6 8-4 7-1-1-3-13-5-3-4z" fill="#E8F4FB"/>
<path transform="translate(852,332)" d="m0 0 4 1 11 19-1 4-4 4h-2l-1 5 6 8 11 8 5-1 5-6 7-1 11 4 6 1 1 2v13h27v-17l9-5h3v2l-9 3-1 18-1 1h-29l-1-1-1-12 1-2-8-1-9-3-5 1-7 8-6-2-8-6-9-9-1-6 7-7-1-5-8-14-4 1-6 4 1-5z" fill="#88BCF3"/>
<path transform="translate(1113,991)" d="m0 0 31 1v2l7 3-2 2 4 2-4 2h-15l-1-1-3 1h-15l-3 1v-2l-2-1v-5l-1-2 3-2z" fill="#CDF3FF"/>
<path transform="translate(421,827)" d="m0 0 2 1 2 9h2l5 5 6 2 20 2 10 3 6 4 4 5 2 4v5l-5-1-5-9-10-4-23-3-10-4-6-7-1-2z" fill="#0386D0"/>
<path transform="translate(974,494)" d="m0 0 4 1-3 1-1 9h3l1-2 2 2 5 1v-8l4 4-1 5 4-2 5 1v-8h1l1 6 8 2-1-9 5 4h5l1-4-1 21-4-5-2-1-2 2-3-2v-2h-7l-1-1-1 2h-2v2l-10 2-7-2v-4l-5-2 1-12z" fill="#CDF3FF"/>
<path transform="translate(833,957)" d="m0 0h19l5 2-1 5-7 1-1 20-3 2-5-1-1-1-1-20-7-1-1-1v-5z" fill="#EAF5FC"/>
<path transform="translate(623,1033)" d="m0 0 5 3 3-2 4 4-1 2 2 1v2l2 1v2l4 1 2 2h2l1-2 6 3v6l-7-1-27-11-12-6 1-4z" fill="#C5ECFD"/>
<path transform="translate(1036,361)" d="m0 0h8l6 4 1 2v8l-5 6-8 1-6-4-3-6 1-6z" fill="#8CBEF5"/>
<path transform="translate(1105,361)" d="m0 0h7l5 3 2 5-1 8-5 4-7 1-6-4-2-3 1-9z" fill="#8ABDF4"/>
<path transform="translate(891,1051)" d="m0 0v3l-8 4-28 9-29 7-13 2h-15l1-2h5l1-1 12-1 1-1h5v-2l26-6 13-4 16-3 7-3z" fill="#0260A4"/>
<path transform="translate(900,957)" d="m0 0h6l1 1 1 21 12 1 1 5-2 2h-19l-1-1v-28z" fill="#EDF8FD"/>
<path transform="translate(757,847)" d="m0 0h131v1l-31 1v1h-107l4-2z" fill="#2393D8"/>
<path transform="translate(952,693)" d="m0 0h13l-4 2h-3l-2 4-5 4 3-6h-2v2l-8 5v3 1h-16v-13l1-1z" fill="#CDF3FF"/>
<path transform="translate(1175,362)" d="m0 0 7 1 3 3v2h2v7l-5 5-8 1-5-2-3-6 1-7 2-2z" fill="#80BAF1"/>
<path transform="translate(666,613)" d="m0 0h48v1l-34 1 204 1v1h-219l-4-3z" fill="#0386D0"/>
<path transform="translate(330,760)" d="m0 0h6l-2 4-4 5h-2l-2 4-14 11-14 8-9 4-7 1 1-3 5-1 5-5 14-7 3-1v-2l8-6z" fill="#025B9F"/>
<path transform="translate(649,757)" d="m0 0h1v64l1 15 4 6-1 3-4-4-3-5-1-4v-74h1l1 19z" fill="#0386D0"/>
<path transform="translate(717,715)" d="m0 0 3 1 8 20v4h-19l1-6 6-15z" fill="#0C2255"/>
<path transform="translate(629,1049)" d="m0 0 7 1 19 7 24 7 4 1v2l3 1-2 1h-7l-22-6-24-9-5-2v-2z" fill="#0261A5"/>
<path transform="translate(927,755)" d="m0 0h35v1h-17v2l-6 2-1 4 5 4 22 1v1h-38z" fill="#CBF1FE"/>
<path transform="translate(1125,972)" d="m0 0h27l2 5 4 1 13 1v1h-18l-3-1h-15l-18-1-4 4 1-7 10-2z" fill="#CDF3FF"/>
<path transform="translate(1274,505)" d="m0 0h10l2 2v16h-12l-1-3v-14z" fill="#F9D065"/>
<path transform="translate(1114,449)" d="m0 0h12l1 6v11l-1 1h-11l-1-1z" fill="#F8CE62"/>
<path transform="translate(822,400)" d="m0 0 6 1 2 1v-2l16 2 3 2-1 1 5 3v2l2 1v2l-10-2-24-5-6-1 4-2z" fill="#C4ECFD"/>
<path transform="translate(494,632)" d="m0 0 4 1 1 2v7h7l2 1-1 4-9 1v8l-4 2-1-1-1-9-9-1-1-4 1-1 10-1v-8z" fill="#8CBEF5"/>
<path transform="translate(1033,945)" d="m0 0h3l-2 5-12 14-9 9-3 4h-2l-2 4-7 6h-4v-2h2l2-4h2l2-4h2l2-4 3-5 10-10 5-2 2-4h2l1-4h3z" fill="#0262A6"/>
<path transform="translate(439,796)" d="m0 0 2 2 2 3-8 7-8 16-1 10-1 4h-1l-2-10-2 3v-7l4-10 6-10 7-7z" fill="#0283CC"/>
<path transform="translate(1283,589)" d="m0 0 3 2v10l-2 7h-9l-2-1v-17z" fill="#F6D16A"/>
<path transform="translate(431,1061)" d="m0 0 11 1 1 3 1 4 1 2 3 1v2l3 1-2 4-6 3-2 7-2-2-5 5 3-11-2-11 2-4v-2l-6-2z" fill="#CDF3FF"/>
<path transform="translate(725,865)" d="m0 0h107l67 1v1l-163 1-39-1v-1z" fill="#0664A8"/>
<path transform="translate(1090,449)" d="m0 0h12l1 1-1 17h-12z" fill="#F8D065"/>
<path transform="translate(1014,593)" d="m0 0h1v77l-3 1-1-6v-10l2-5v-13l-2-3v-23l1-4 1-12z" fill="#CEF4FF"/>
<path transform="translate(1250,561)" d="m0 0h10l1 1v17l-2 1-10-1v-17z" fill="#F6D26F"/>
<path transform="translate(1249,449)" d="m0 0h11l1 1v17h-11l-1-1z" fill="#F7D16A"/>
<path transform="translate(1226,449)" d="m0 0h10l1 1v17h-12v-17z" fill="#F8CF63"/>
<path transform="translate(1226,561)" d="m0 0h10l1 1v17h-11l-1-1v-16z" fill="#F7CF66"/>
<path transform="translate(961,540)" d="m0 0 5 1v10l8-1 2 1v4h-10v10l-5 1-1-10-9-1-1-4 11-1z" fill="#0386D0"/>
<path transform="translate(1114,478)" d="m0 0h12l1 1v15l-1 1h-11l-1-7z" fill="#FACF61"/>
<path transform="translate(609,899)" d="m0 0 3 1 1 9 5 1h5v5h-10v11h-4l-1-11h-10l-1-4 2-1 9-1v-9z" fill="#027AC2"/>
<path transform="translate(158,703)" d="m0 0 9 1 2 3v8l-4 4-9-1-2-2v-10z" fill="#FBCF5E"/>
<path transform="translate(1042,534)" d="m0 0h11l1 5v9l-1 3h-11l-1-2v-14z" fill="#CEF4FF"/>
<path transform="translate(429,1077)" d="m0 0 6 1 1 5-4 8-6 5-7 1h-6l-2-1 1-5 9-2 5-4z" fill="#C9F0FE"/>
<path transform="translate(1115,561)" d="m0 0h10l1 1v17l-9 1-2-1-1-17z" fill="#F9CF61"/>
<path transform="translate(1066,590)" d="m0 0h11l1 1v15l-6 2-6-1z" fill="#F5D26F"/>
<path transform="translate(1014,429)" d="m0 0 2 2v57l-1 7h-3l1-3 1-2h-2v-6h2l-1-26-1-4-1-10v-11z" fill="#CEF4FF"/>
<path transform="translate(1273,562)" d="m0 0h12l1 5-1 12h-11l-1-1z" fill="#CEF4FF"/>
<path transform="translate(1225,478)" d="m0 0h12v17h-12l-1-15z" fill="#F4D273"/>
<path transform="translate(1299,589)" d="m0 0h9l1 1v17l-1 1h-7l-3-1-1-16z" fill="#FACF5F"/>
<path transform="translate(1090,562)" d="m0 0h12v17h-12z" fill="#F9CF63"/>
<path transform="translate(1090,506)" d="m0 0h12v17h-12z" fill="#CEF4FF"/>
<path transform="translate(1066,506)" d="m0 0h12v17h-12z" fill="#F4D373"/>
<path transform="translate(1249,478)" d="m0 0h12v17h-12z" fill="#CEF4FF"/>
<path transform="translate(1090,478)" d="m0 0h12v17h-12z" fill="#CEF4FF"/>
<path transform="translate(620,1208)" d="m0 0h5l3 3-4 4-8 3h-12l-8-3 1-3 2-1 18-2z" fill="#F6FCFD"/>
<path transform="translate(1090,590)" d="m0 0h11l1 1v16h-12z" fill="#CEF4FF"/>
<path transform="translate(659,615)" d="m0 0 6 1-3 2-6 2v2h-2l-2 5-2 10-1 59-2-1v-67l6-9z" fill="#81B9F2"/>
<path transform="translate(1042,478)" d="m0 0h9l2 1v16h-11l-1-1v-15z" fill="#FACF5F"/>
<path transform="translate(125,704)" d="m0 0h12l1 1v12l-1 1h-11l-3-3v-8z" fill="#FBCF5E"/>
<path transform="translate(1249,590)" d="m0 0h12v11l-1 6h-11z" fill="#CEF4FF"/>
<path transform="translate(678,410)" d="m0 0h20l-2 2-25 6-20 6-6 2h-8v-1h5l1-3 10-1v-2l7-2h5v-2h2v-2z" fill="#025EA2"/>
<path transform="translate(1231,533)" d="m0 0 6 1v10l-1 7-11-1v-16z" fill="#CEF4FF"/>
<path transform="translate(1298,478)" d="m0 0h10l1 1v16h-11l-1-6v-10z" fill="#F9CE5F"/>
<path transform="translate(1066,450)" d="m0 0h12v14l-1 3h-11z" fill="#CEF4FF"/>
<path transform="translate(1067,562)" d="m0 0h11v17h-11l-1-16z" fill="#CEF4FF"/>
<path transform="translate(1115,534)" d="m0 0h11v17h-11l-1-16z" fill="#CEF4FF"/>
<path transform="translate(603,1041)" d="m0 0 5 2 18 8-3 1 5 5-5 1-2-1-9 2 1-2-2-1v-2h-2l-7-11z" fill="#C7EEFE"/>
<path transform="translate(706,569)" d="m0 0 2 1-3 3h-2v2l-3 2h4l-2 4-6 1 2-1-3-1-2 4-6 3-2 3-4-1-1 4 1 2h-7l-1-5 6-5 12-6z" fill="#C9EEFF"/>
<path transform="translate(1249,506)" d="m0 0h11l1 1-1 16h-10l-1-4z" fill="#CEF4FF"/>
<path transform="translate(1274,534)" d="m0 0h10l1 1v15h-12v-15z" fill="#F4D06B"/>
<path transform="translate(965,723)" d="m0 0h5l1 13-2 2h-3l-1-3-2-3-2 1-2-5 1-2h-10l2 4-8-4h-9l-7-1v15h-1v-16z" fill="#C5EBFE"/>
<path transform="translate(1274,450)" d="m0 0h11v16l-1 1h-9l-1-1-1-15z" fill="#CEF4FF"/>
<path transform="translate(1298,534)" d="m0 0h11v17h-11z" fill="#CEF4FF"/>
<path transform="translate(1042,590)" d="m0 0h11v16l-1 1h-10z" fill="#F9CF61"/>
<path transform="translate(1067,534)" d="m0 0 11 1v15h-12v-15z" fill="#FBCF5E"/>
<path transform="translate(629,429)" d="m0 0h3v2l-23 10-22 12-20 13-4 3-3-1 4-5 8-4 3-3h3v-2l7-2v-2l16-8 9-3v-2l8-3 5-3z" fill="#02589B"/>
<path transform="translate(884,418)" d="m0 0 5 1 2 2 7 1 8 4 9 6 10 6 1 3-6-2-21-10-17-7-1-3z" fill="#C3EBFD"/>
<path transform="translate(867,253)" d="m0 0 4 1 5 4 8 4-1 2-5-1-9-6-5 3-11 12v5l8 9-2 10-3 9-5 1 3-4 3-10v-8l-4-2-4-5 1-5 7-9z" fill="#88BCF4"/>
<path transform="translate(1042,562)" d="m0 0h11v16l-1 1h-8l-2-1z" fill="#0B1E50"/>
<path transform="translate(942,438)" d="m0 0h3l11 23-1 2h-26l-1-3h21l-10-6v-3l5 1 4 1-3-7z" fill="#075799"/>
<path transform="translate(947,462)" d="m0 0h6l-1 4-3 1 4 3-4 2h-10l-8-3-2-3 1-1-2-2z" fill="#CBF1FE"/>
<path transform="translate(189,704)" d="m0 0 9 1 1 1v9l-3 3-5 1-5-3-1-1v-8l1-2z" fill="#CEF4FF"/>
<path transform="translate(1115,590)" d="m0 0h10l1 1v15l-10 1-1-1z" fill="#0B1E50"/>
<path transform="translate(1006,972)" d="m0 0 2 1-5 5-6 7-1 1 2 2-9 8-14 11-5-1 6-7 4-3h2v-2l11-9 9-9h2z" fill="#0285CF"/>
<path transform="translate(548,473)" d="m0 0m3 0 3 1-3 2-1 3-10 8-12 11-5 2v-3l3-5 13-12 9-6z" fill="#0277BF"/>
<path transform="translate(647,1121)" d="m0 0 7 1 14 12 3 5-1 5-5 7 1 6 6 10 2 1h13v3h-14l-5-5-5-8-1-8h2l1-4 3-5-3-5-5-5-8-7-5-2z" fill="#88BCF3"/>
<path transform="translate(915,235)" d="m0 0h11l2 5 2 9 1 2-3 1-4-13h-24v17l-9 4-7 2 5-5 7-3 1-13 2-4z" fill="#89BDF4"/>
<path transform="translate(1116,506)" d="m0 0h9l1 1v14l-4 1h-7v-15z" fill="#0B1E50"/>
<path transform="translate(444,685)" d="m0 0 9 1h8l9-1 18 1-3 1v2l-58 1-4-3 13-1h7z" fill="#CDF3FF"/>
<path transform="translate(1299,506)" d="m0 0h9l1 1v15l-1 1h-9l-1-2z" fill="#0B1E50"/>
<path transform="translate(1225,506)" d="m0 0h10l1 1v14l-1 1h-9l-1-5z" fill="#0B1E50"/>
<path transform="translate(1042,450)" d="m0 0h11v15l-8 1-3-1z" fill="#0B1E50"/>
<path transform="translate(358,686)" d="m0 0 10 1h28l16 1 4 2h-71l3-2z" fill="#CEF4FF"/>
<path transform="translate(971,712)" d="m0 0h7l2 1-1 10-6 12-2 1-2-8z" fill="#CDF3FF"/>
<path transform="translate(1091,534)" d="m0 0h10v16h-9l-1-1z" fill="#0B1E50"/>
<path transform="translate(1299,562)" d="m0 0h9l1 1-1 16h-9z" fill="#0B1E50"/>
<path transform="translate(954,494)" d="m0 0h5l2 1h5l1 2h-4v2l2 1 2 8 5-1 2 7h-11l-3-3-1-5 2-1 1-7-4-1-3-2v4l-3 1-1 4v-7z" fill="#CEF3FE"/>
<path transform="translate(1042,507)" d="m0 0h10v15h-10z" fill="#0B1E50"/>
<path transform="translate(1302,449)" d="m0 0h5l1 1v16h-9v-16z" fill="#0B1E50"/>
<path transform="translate(655,845)" d="m0 0 7 2 8 1h72l6 1v1h-85l-8-3z" fill="#8CBEF5"/>
<path transform="translate(1029,728)" d="m0 0 2 1v41l1 1h7l-1-43h2l1 7v13l-1 25h-11l-1-14v-28z" fill="#074C8D"/>
<path transform="translate(989,892)" d="m0 0h3l1 12 12 1v2l-2 1h-10l-1 12h-3v-13h-11l2-2h9z" fill="#5BAAE7"/>
<path transform="translate(950,370)" d="m0 0m-3 1h3v2l-9 3-1 18-1 1h-29l-1-1-1-12 3-2v13h27v-17z" fill="#8ABDF4"/>
<path transform="translate(645,1242)" d="m0 0h5l2 3h-6l-13 7-1 12-5 5-6 1h-15l-4-2 1-4 3 3h11l10-1 2-7 1-9 12-6z" fill="#87BCF3"/>
<path transform="translate(832,868)" d="m0 0h6l3 5-1 3-2 2-3 8-1 18-2 4z" fill="#CEF4FF"/>
<path transform="translate(933,452)" d="m0 0 6 1 10 6 1 2h-14l-9-1-1 2-5-6h8z" fill="#CAF0FE"/>
<path transform="translate(1226,591)" d="m0 0h10v15h-9z" fill="#0B1E50"/>
<path transform="translate(1251,535)" d="m0 0h9v15h-9z" fill="#0B1E50"/>
<path transform="translate(1275,479)" d="m0 0h9v15h-9z" fill="#0B1E50"/>
<path transform="translate(1067,479)" d="m0 0h9v15h-9z" fill="#0B1E50"/>
<path transform="translate(933,786)" d="m0 0 20 1-3 3-15 4-4 2-3-2v-7z" fill="#CDF3FF"/>
<path transform="translate(372,814)" d="m0 0h2l1 2 3-1h8l-1 2-22 5-5 1h-7l5-5 6-2z" fill="#0277BF"/>
<path transform="translate(956,246)" d="m0 0h5l12 11 5 5v3h-2l-4-5-7-6v-2l-3-1v-2h-5l-7 8-5 2-11-4-5-3 2-1 12 4 4 1 3-1 2-4z" fill="#86BBF3"/>
<path transform="translate(976,342)" d="m0 0 5 5v2l4 2 2 5-5 9-3 1-2 4-5 6-6 1-8-6-8 1 5-5 6 2 8 6 3-1 1-3h2l2-5 6-8 1-4-5-5-4-3z" fill="#86BBF3"/>
<path transform="translate(787,450)" d="m0 0 1 2-4 5 2 3h-6l2 4 5 6v5l-4 1-7-9-2-3h3l2-9 5-1z" fill="#CBF1FE"/>
<path transform="translate(554,1246)" d="m0 0 11 7 6 3 5-4 4-5 4-1 16 7 2 2v6l-2-4-6-4-8-3-5 1-9 7-4 1-15-11z" fill="#8ABDF4"/>
<path transform="translate(674,1058)" d="m0 0h6l7 3 10 3v4l-9-1-17-4z" fill="#C1E9FD"/>
<path transform="translate(860,369)" d="m0 0 16 12 5-1 5-6 7-1 11 4 6 1-1 3-17-5-5 1-7 8-6-2-8-6-6-6z" fill="#7EB8F1"/>
<path transform="translate(1286,413)" d="m0 0h12l4 2-1 3h-2v-2h-2v2h8l1-3h5l2-2 1 6-1 1h-27l3-1-1-5z" fill="#CDF3FF"/>
<path transform="translate(305,782)" d="m0 0 6 2-5 4-14 7-5 2h-5l1-3 5-1 5-5z" fill="#025DA2"/>
<path transform="translate(912,443)" d="m0 0h8l13 7-3 2-9 1h-3l-6-7z" fill="#C3EBFD"/>
<path transform="translate(559,1127)" d="m0 0 5 2 7 6 5-1 6-3 3 1-5 3-6 3-5-1-7-6-4 1-10 10-5 7h-2l2-4 8-10z" fill="#8CBEF5"/>
<path transform="translate(320,684)" d="m0 0 8 1 2-1 4 3 8-1 3 2-3 3h-21z" fill="#CDF3FF"/>
<path transform="translate(926,844)" d="m0 0 4 4v5l-9 10-5 3-3-1v-3l6-4 5-8z" fill="#C0EAFC"/>
<path transform="translate(418,1058)" d="m0 0h8v5l1 2-3 1 2 2-4 2-10-2 1-6z" fill="#CAF0FE"/>
<path transform="translate(629,1049)" d="m0 0 7 1 16 6-2 4-9-2-15-6v-2z" fill="#026BB1"/>
<path transform="translate(1136,728)" d="m0 0h3v44l-1 1h-10l-1-1v-43h1l1 38 1 4h7l1-42z" fill="#044E8F"/>
<path transform="translate(421,827)" d="m0 0 2 1 2 9h2l7 8 3 3h-6l-6-4-4-5-1-2z" fill="#025EA2"/>
<path transform="translate(955,495)" d="m0 0 4 1 3 2v7l-4 1-5-4v3h-6v-6l4-1 1 2z" fill="#9DD4F5"/>
<path transform="translate(832,1069)" d="m0 0h8l-1 2-19 4-7 1h-15l1-2h5l1-1 12-1 6-2 9 1z" fill="#0260A4"/>
<path transform="translate(581,705)" d="m0 0 1 3h2v8l-3 6-3 2-2-4v-7l4-7z" fill="#CDF3FF"/>
<path transform="translate(829,847)" d="m0 0h59v1l-31 1v1h-28z" fill="#0386D0"/>
<path transform="translate(190,824)" d="m0 0h4v2l-25 9-12 3h-5l4-4h7l7-3 11-3z" fill="#025FA3"/>
<path transform="translate(1153,733)" d="m0 0h2v34l4 4-6 1-1 3v-38z" fill="#CDF3FF"/>
<path transform="translate(489,686)" d="m0 0 10 2-1 2h-68v-1h55v-2l4 1z" fill="#CAEFFF"/>
<path transform="translate(675,1224)" d="m0 0 4 3-1 6-2 4h-2l-1 4h-2l-2 4-7 6h-5l-5-5 2-1 2 1v2l5 1 9-9 6-10z" fill="#83BAF2"/>
<path transform="translate(1114,560)" d="m0 0h12l1 1v20l-8 2-5-2-1-6v-13h1l1 7v10h11l-1-17-11-1z" fill="#193068"/>
<path transform="translate(972 1e3)" d="m0 0m-1 1m-1 1m-1 1h5v3l-14 10-5-1 4-5z" fill="#027AC3"/>
<path transform="translate(846,306)" d="m0 0h5l-4 2-7 1 3 25 1 3-4-2-2-12v-16z" fill="#8CBEF5"/>
<path transform="translate(550,1212)" d="m0 0 2 1 6 12v5l-6 7v6l2 4-3-1-2-3v-6l5-7v-6l-5-10z" fill="#83BAF2"/>
<path transform="translate(471,1075)" d="m0 0 2 2 3 8 1 3-8 1-2-4v-6z" fill="#C9F0FE"/>
<path transform="translate(154,833)" d="m0 0 2 1-1 3-2 2-11 2h-5v-4l12-3z" fill="#0281CA"/>
<path transform="translate(965,693)" d="m0 0 4 1 2 6-1 4-4-3-2 2-3-5-2 2v-3h-2l-1-3 4 1z" fill="#C9EEFF"/>
<path transform="translate(1273,504)" d="m0 0h12l2 2 1 8-1 10-1 1h-13l-1-1v-18h1l1 16 12 1-1-16-1-1-11-1z" fill="#182F67"/>
<path transform="translate(943,492)" d="m0 0 3 1-3 3 4 2-4 2 1 4-2 2 4 1-1 3-7 1-1-5 2-1v-7l-2-1v-2z" fill="#CDF3FF"/>
<path transform="translate(534,485)" d="m0 0 3 1-1 4-9 9-4 1v-3l3-5z" fill="#0265AA"/>
<path transform="translate(230,848)" d="m0 0h1l4 19h-5l-3-7v-9l2 1z" fill="#0263A8"/>
<path transform="translate(648,813)" d="m0 0h1l2 23 4 6-1 3-4-4-3-5v-15z" fill="#6FB2ED"/>
<path transform="translate(266,759)" d="m0 0h3l-1 5-6 8-4 1-1-2 3-7 3-4z" fill="#0265AA"/>
<path transform="translate(1168,457)" d="m0 0 1 2h4l-1 7-1 2h2l1 6-6 3z" fill="#CEF4FF"/>
<path transform="translate(836,1058)" d="m0 0 1 3h12l3-1h7l-3 2-23 6h-5l4-2 3-2v-2z" fill="#B4DFFB"/>
<path transform="translate(1198,727)" d="m0 0h2l1 21v18h-1l-1-15-1-3-2-1 1-3v-12z" fill="#BEE7FC"/>
<path transform="translate(942,438)" d="m0 0h3l10 21v2h-2v-3l-5-2-4-3h4l-3-7z" fill="#0386D0"/>
<path transform="translate(898,1046)" d="m0 0m-2 1h2v4l-3 2-4 1-1-1-11 3-9 3-4-1 25-9z" fill="#0386D0"/>
<path transform="translate(1033,945)" d="m0 0h3l-2 5-11 13-3-1v-4l5-2 2-4h2l1-4h3z" fill="#025B9F"/>
<path transform="translate(484,540)" d="m0 0 2 2v3l11-4 7-1-2 3-16 4-1 1h-6l3-6z" fill="#026FB6"/>
<path transform="translate(852,1062)" d="m0 0 3 1h-2v2l-9 2-2 1 1 2-11-1v2h-7l-2-2 26-6z" fill="#0386D0"/>
<path transform="translate(302,853)" d="m0 0 1 3v11h-49v-1l46-1v-8z" fill="#C8EEFE"/>
<path transform="translate(805,394)" d="m0 0 1 3 5-3 2 4v5h-10l-8-1v-1h9z" fill="#C2EAFD"/>
<path transform="translate(473,854)" d="m0 0 4 2 3 6v5l-5-1-5-9v-2z" fill="#0262A7"/>
<path transform="translate(647,1122)" d="m0 0 2 2h-2l-2 4-4 5-7-1-10-4-4-2 4-1 11 4 5 1z" fill="#8CBEF5"/>
<path transform="translate(647,1121)" d="m0 0 7 1 14 12 3 5-1 2-10-10-8-7-5-2z" fill="#81B9F2"/>
<path transform="translate(897,925)" d="m0 0 6 1h3l1 4-2 2-15-1v-2h5v-2h2z" fill="#CEF4FF"/>
<path transform="translate(827,408)" d="m0 0h9l13 3-4 2 1 2-8-1-7-2 1-2-5-1z" fill="#026EB4"/>
<path transform="translate(977,746)" d="m0 0 2 1-3 9-2 5-3 1-2-6 3-5z" fill="#CDF3FF"/>
<path transform="translate(484,1061)" d="m0 0 5 1v3l1 3-9 1-4 1-1 3-2-1 2-4 4-2 1-3z" fill="#C3EBFD"/>
<path transform="translate(387,810)" d="m0 0 4 1 1 3-6 2h-8-4v-2z" fill="#027AC3"/>
<path transform="translate(663,414)" d="m0 0 4 1h-2v2l-10 2h-2v2l-8 2h-2l-1 2h-5l2-3z" fill="#0386D0"/>
<path transform="translate(629,429)" d="m0 0h3v2l-23 10-5 2 1-3 5-1v-2l8-3 5-3z" fill="#0264A9"/>
<path transform="translate(524,684)" d="m0 0 5 3 4-1-1 2h-2v2h-18l-1-2h6z" fill="#CEF4FF"/>
<path transform="translate(852,332)" d="m0 0 4 1 6 11h-3l-5-8-4 1-6 4 1-5z" fill="#89BDF4"/>
<path transform="translate(655,845)" d="m0 0 7 2 8 1h13l12 1v1h-32l-8-3z" fill="#7BB7F0"/>
<path transform="translate(256,776)" d="m0 0 1 3-14 15-4 1 2-1v-2h2v-2h2l1-5 3-1 2-4h2l1-2z" fill="#025DA2"/>
<path transform="translate(936,445)" d="m0 0h9l3 4v4l-5-1-7-5z" fill="#B1DCFA"/>
<path transform="translate(683,410)" d="m0 0h15l-2 2-14 3h-7l1-2z" fill="#025B9F"/>
<path transform="translate(961,248)" d="m0 0 5 2 12 12v3h-2l-4-5-7-6v-2l-3-1z" fill="#7BB7F0"/>
<path transform="translate(597,1036)" d="m0 0 4 2v5h2l7 11v2l-4-1-6-10-3-6z" fill="#026DB4"/>
<path transform="translate(602,441)" d="m0 0h2l-1 3-21 12v-3l3-1v-2l16-8z" fill="#025CA0"/>
<path transform="translate(972,776)" d="m0 0h2v2h2l1-2 1 1-1 7-3 1-1 4h-3v-3l2-2z" fill="#CDF3FF"/>
<path transform="translate(655,418)" d="m0 0 3 1-1 3-12 4h-8v-1h5l1-3 10-1v-2z" fill="#025A9D"/>
<path transform="translate(993,497)" d="m0 0h4v9h-5l-2-6z" fill="#89C1F2"/>
<path transform="translate(842,308)" d="m0 0 4 1-5 1 3 22 4 3-5 4-3-2 1-2 3 2-2-3-2-17v-8z" fill="#CAF0FF"/>
<path transform="translate(953,502)" d="m0 0 4 2-1 2 2 2-4 4-5-1v-5l3-1z" fill="#CDF3FF"/>
<path transform="translate(928,460)" d="m0 0h23v2l-4 1h-18z" fill="#0274BC"/>
<path transform="translate(845,412)" d="m0 0h7l8 2v2l-5 1-9-1v-2l-3-1z" fill="#025FA3"/>
<path transform="translate(1035,939)" d="m0 0 2 1v2l-2 1v3l-5 3-1 3-7 6v-3l10-12z" fill="#0386D0"/>
<path transform="translate(1272,590)" d="m0 0h1v17h11 3l-3 3h-11l-1-1z" fill="#172D64"/>
<path transform="translate(888,373)" d="m0 0 8 1 8 3 6 1-1 3-22-6z" fill="#72B3EE"/>
<path transform="translate(554,1246)" d="m0 0 11 7 6 3 1 2-4 1-15-11z" fill="#8CBEF5"/>
<path transform="translate(593,1207)" d="m0 0 7 2 11 1v1l-12 1-4 2-3-2z" fill="#CDF3FF"/>
<path transform="translate(1045,923)" d="m0 0 2 1-2 4-1-2-11 5h-6l1-2z" fill="#0283CD"/>
<path transform="translate(494,533)" d="m0 0v3 4l3 2-11 3 2-5z" fill="#B5DEFA"/>
<path transform="translate(585,448)" d="m0 0m-1 1 1 3-4 2h-3v2l-5 3-3 2-6 2 5-5 13-8z" fill="#0386D0"/>
<path transform="translate(891,1051)" d="m0 0v3l-8 4-8 2 1-3 9-4z" fill="#025B9F"/>
<path transform="translate(966,541)" d="m0 0 2 2v2l4 1v2h2v2l-2 1h-6l-1-2v-6z" fill="#B2DDFA"/>
<path transform="translate(400,805)" d="m0 0m-2 1h2v3h-2l1 3-7 2-2-4z" fill="#0386D0"/>
<path transform="translate(325,765)" d="m0 0 1 2-7 8-9 7-3-1 3-1v-2l8-6z" fill="#0386D0"/>
<path transform="translate(961,540)" d="m0 0 5 1-1 8-3 1v2h-2z" fill="#0274BB"/>
<path transform="translate(1175,362)" d="m0 0 7 1 3 3 1 7-3-4-4-4-5 1h-4l1-2z" fill="#0386D0"/>
<path transform="translate(170,831)" d="m0 0h3l-1 3-15 4h-5l4-4h7z" fill="#025B9E"/>
<path transform="translate(319,645)" d="m0 0h4v15l-2 2-1-6z" fill="#ABD7F4"/>
<path transform="translate(1007,454)" d="m0 0h1l1 10-2 13h-1l-1-16z" fill="#CEF4FF"/>
<path transform="translate(629,1204)" d="m0 0 3 2-1 4h-2v2l-2-1-2-2-5-1 4-2z" fill="#CDF3FF"/>
<path transform="translate(805,1073)" d="m0 0h11v2l-3 1h-15l1-2h5z" fill="#025699"/>
<path transform="translate(352,818)" d="m0 0 4 1-1 2-3 2-3 1-6-2 1-2z" fill="#0386D0"/>
<path transform="translate(955,367)" d="m0 0 6 2 6 5v2h-3l-4-4-5-1-5 1z" fill="#74B4EE"/>
<path transform="translate(976,342)" d="m0 0 5 5v2l4 2 2 5-1 3h-2l-1-7-8-6z" fill="#6DB1EC"/>
<path transform="translate(899,252)" d="m0 0 1 4-9 4-7 2 5-5z" fill="#8CBEF5"/>
<path transform="translate(343,822)" d="m0 0 6 1-1 2-14 4-4-1 6-3h5v-2z" fill="#025CA0"/>
<path transform="translate(787,450)" d="m0 0 1 2-4 5 2 3h-6l-2 2 1-7 5-1z" fill="#CDF3FF"/>
<path transform="translate(1200,420)" d="m0 0 8 1-2 1-2 6-1 2h-2z" fill="#025496"/>
<path transform="translate(896,976)" d="m0 0 2 2 1 7-6 1v-8z" fill="#0386D0"/>
<path transform="translate(858,289)" d="m0 0h2l-3 15-2 2-4-1 3-3z" fill="#8CBEF5"/>
<path transform="translate(816,1070)" d="m0 0h7v1l-6 2-12 1-4 1-2-2z" fill="#0386D0"/>
<path transform="translate(629,1049)" d="m0 0h4v2l2 1 3 2v2l-12-4v-2z" fill="#0262A7"/>
<path transform="translate(693,865)" d="m0 0 4 1 3 2-2 2-7 1-2-2 4-2z" fill="#C9F0FE"/>
<path transform="translate(421,827)" d="m0 0 2 1 1 3v8h-3l-1-2z" fill="#02579A"/>
<path transform="translate(981,325)" d="m0 0 2 1-1 5-4 11h-2l2-10z" fill="#8CBEF5"/>
<path transform="translate(340,826)" d="m0 0 3 1-11 5-4 2-4-1 10-5z" fill="#B1DCFA"/>
<path transform="translate(422,761)" d="m0 0h5v8l-3 2-1-1z" fill="#02579A"/>
<path transform="translate(852,277)" d="m0 0 9 9v3h-3l-1-5-4-2-3-4z" fill="#71B3ED"/>
<path transform="translate(852,1062)" d="m0 0 3 1h-2v2l-9 2-6 1v-2z" fill="#0281CA"/>
<path transform="translate(717,867)" d="m0 0 3 1-2 1-1 6-5-2-1-4z" fill="#C9EEFF"/>
<path transform="translate(979,498)" d="m0 0 2 1v6h2v-7h2v8h-5l-2-4z" fill="#70B2ED"/>
<path transform="translate(942,438)" d="m0 0h3l5 10-1 3-4-5z" fill="#0363A8"/>
<path transform="translate(658,1055)" d="m0 0 6 1 1 4-7-1-4-2z" fill="#C0E8FC"/>
<path transform="translate(1e3 979)" d="m0 0 3 1-5 5-4 2h-2v-2h2l2-4z" fill="#0267AD"/>
<path transform="translate(833,580)" d="m0 0h1l2 12-2 3-2 1v-10z" fill="#CDF3FF"/>
<path transform="translate(1014,566)" d="m0 0h1l1 9-1 13h-1l-1-11z" fill="#CEF4FF"/>
<path transform="translate(897,499)" d="m0 0 2 4-1 2 4 1-4 4-4-1 1-4z" fill="#CDF3FF"/>
<path transform="translate(427,1070)" d="m0 0 4 1v4l-2 6h-1l-2-10z" fill="#C1EAFD"/>
<path transform="translate(378,815)" d="m0 0h8l-1 2-7 2h-7l1-2z" fill="#025DA1"/>
<path transform="translate(305,782)" d="m0 0 4 2-9 4-5 2-4-1z" fill="#0386D0"/>
<path transform="translate(618,515)" d="m0 0 10 10 3 1 1 3-5-2-7-6-2-3z" fill="#0F2A60"/>
<path transform="translate(948,498)" d="m0 0h3l2 2v5h-6v-6z" fill="#7BB7F0"/>
<path transform="translate(1e3 497)" d="m0 0h2l1 2v7h-4v-8z" fill="#87BCF3"/>
<path transform="translate(1322,421)" d="m0 0h13l-1 4-9-2z" fill="#025497"/>
<path transform="translate(678,410)" d="m0 0h5l-2 3-7 2-7-1 3-2z" fill="#0386D0"/>
<path transform="translate(603,1041)" d="m0 0 5 2 6 3-3 1-4-1-2 2-3-6z" fill="#8CBEF5"/>
<path transform="translate(252,812)" d="m0 0 2 1-13 13v-3l7-8z" fill="#C6E4FB"/>
<path transform="translate(584,735)" d="m0 0 9 2 1 2h-9v5h-1z" fill="#C9EEFF"/>
<path transform="translate(972,550)" d="m0 0 4 1v4h-7l-2-1v-2z" fill="#025699"/>
<path transform="translate(891,498)" d="m0 0h4l-2 6h2l1-5h1v5l-2 2-4-1z" fill="#7AB7F0"/>
<path transform="translate(997,321)" d="m0 0v3l-15 2 2-3z" fill="#7FB8F1"/>
<path transform="translate(615,959)" d="m0 0h3v7l-3 2-1-1v-7z" fill="#8CBEF5"/>
<path transform="translate(1183,739)" d="m0 0 4 1 5 6h2v3l-3 1-8-10z" fill="#CEF4FF"/>
<path transform="translate(813,551)" d="m0 0 10 2v1h-7l-1 3-3-1v-2l-2-1z" fill="#CEF4FF"/>
<path transform="translate(711,1067)" d="m0 0h7l-1 4-13-1v-1h7z" fill="#B0DCFA"/>
<path transform="translate(609,915)" d="m0 0h3v10h-3z" fill="#025092"/>
<path transform="translate(950,551)" d="m0 0h7l3 4h-9z" fill="#02579A"/>
<path transform="translate(943,456)" d="m0 0 6 3 1 2h-14v-1h7l-1-3z" fill="#8CBEF5"/>
<path transform="translate(1302,413)" d="m0 0 4 4-1 2h-11l3-1v-2h2v2l2-1z" fill="#C9EEFF"/>
<path transform="translate(871,256)" d="m0 0 5 2 8 4-1 2-5-1-7-5z" fill="#6AB0EC"/>
<path transform="translate(957,248)" d="m0 0 5 1v2l-6 2-5 5-2-1z" fill="#D3F1FE"/>
<path transform="translate(593,959)" d="m0 0 3 1v6h-4v-6z" fill="#87BCF3"/>
<path transform="translate(809,911)" d="m0 0 2 1 1 6-4 1-1-7z" fill="#C9EEFF"/>
<path transform="translate(952,726)" d="m0 0 5 1 4 8-1 3-2-1-2-6z" fill="#C9EEFF"/>
<path transform="translate(945,724)" d="m0 0h11v1l-6 1 2 4-7-3z" fill="#C9EEFF"/>
<path transform="translate(480,524)" d="m0 0h3l-1 10-2 2-1-3z" fill="#0386D0"/>
<path transform="translate(955,457)" d="m0 0 6 5-4 4-3-3 1-2z" fill="#C6EEFD"/>
<path transform="translate(978,263)" d="m0 0h1l-1 7-6 6-2-1 6-7z" fill="#8CBEF5"/>
<path transform="translate(660,959)" d="m0 0h3v7l-2 1-2-1z" fill="#8CBEF5"/>
<path transform="translate(581,959)" d="m0 0h3v7h-4z" fill="#86BBF3"/>
<path transform="translate(1049,921)" d="m0 0h3l-1 7-5-3 1-3z" fill="#025C9F"/>
<path transform="translate(927,858)" d="m0 0 3 2-3 1-2 4-3 1-1-4 5-3z" fill="#CCF2FF"/>
<path transform="translate(1243,846)" d="m0 0h3v7h-4v-6z" fill="#9ED2F6"/>
<path transform="translate(935,447)" d="m0 0 5 2 2 2-5 2-4-4z" fill="#026AAF"/>
<path transform="translate(929,251)" d="m0 0 8 2 6 2v2l-12-3z" fill="#51A6E4"/>
<path transform="translate(559,960)" d="m0 0h4l-1 8h-3z" fill="#8CBEF5"/>
<path transform="translate(604,959)" d="m0 0 4 1-3 7h-2v-7z" fill="#8CBEF5"/>
<path transform="translate(710,574)" d="m0 0 1 3-4 6-5 2-3-1 6-3 3-1 1-4z" fill="#C9EEFF"/>
<path transform="translate(961,556)" d="m0 0 4 4v6h-4z" fill="#025A9D"/>
<path transform="translate(859,498)" d="m0 0 4 1v5h-4l-1-5z" fill="#76B5EF"/>
<path transform="translate(899,310)" d="m0 0h2l-2 12-2-4 1-7z" fill="#CEF4FF"/>
</svg>
